<svg width="400" height="400" viewBox="0 0 400 400" fill="none" xmlns="http://www.w3.org/2000/svg">
<path d="M80 0H320C364.219 0 400 35.7815 400 80V320C400 364.219 364.219 400 320 400H80C35.7815 400 0 364.219 0 320V80C0 35.8831 35.7815 0 80 0Z" fill="#27A9E3"/>
<path d="M169.959 81C187.879 81 203.337 91.5845 210.44 106.858C217.172 100.08 226.503 95.8554 236.809 95.8554C254.774 95.8554 269.769 108.622 273.204 125.566H273.947C290.334 125.566 303.658 138.89 303.658 155.277C303.658 171.664 290.334 184.988 273.947 184.988H125.393C109.006 184.988 95.6821 171.664 95.6821 155.277C95.6821 138.89 109.006 125.566 125.393 125.566C125.393 100.962 145.355 81 169.959 81ZM131.242 216.695L108.959 253.833C105.802 259.126 98.9318 260.797 93.686 257.64C88.4401 254.483 86.6761 247.613 89.8793 242.367L112.162 205.228C115.319 199.936 122.19 198.218 127.436 201.422C132.681 204.625 134.445 211.449 131.242 216.695ZM283.417 201.422C288.71 204.578 290.381 211.449 287.224 216.695L264.941 253.833C261.784 259.126 254.914 260.797 249.668 257.64C244.422 254.483 242.704 247.613 245.861 242.367L268.144 205.228C271.301 199.936 278.172 198.218 283.417 201.422ZM183.236 216.695L160.953 253.833C157.796 259.126 150.926 260.797 145.68 257.64C140.434 254.483 138.67 247.613 141.873 242.367L164.156 205.228C167.313 199.936 174.184 198.218 179.43 201.422C184.675 204.625 186.439 211.449 183.236 216.695ZM231.423 201.422C236.716 204.578 238.387 211.449 235.23 216.695L212.947 253.833C209.79 259.126 202.92 260.797 197.674 257.64C192.428 254.483 190.664 247.613 193.867 242.367L216.15 205.228C219.307 199.936 226.178 198.218 231.423 201.422ZM208.258 276.859C218.704 284.055 231.47 288.976 244.236 288.976C256.724 288.976 269.955 283.962 280.168 276.859C285.692 272.913 293.213 273.238 298.366 277.648C305.051 283.173 313.453 287.397 321.856 289.347C329.841 291.204 334.808 299.189 332.951 307.174C331.094 315.158 323.109 320.126 315.124 318.269C303.751 315.623 294.28 310.609 288.106 306.663C274.643 313.905 259.556 318.687 244.236 318.687C229.427 318.687 216.104 314.091 206.912 309.913C204.219 308.659 201.759 307.452 199.67 306.338C197.581 307.452 195.167 308.706 192.428 309.913C183.236 314.091 169.913 318.687 155.104 318.687C139.784 318.687 124.697 313.905 111.234 306.709C105.013 310.609 95.5893 315.669 84.2156 318.315C76.2308 320.172 68.2461 315.205 66.3891 307.22C64.5322 299.235 69.4995 291.25 77.4843 289.394C85.8869 287.444 94.2895 283.219 100.974 277.695C106.127 273.331 113.648 273.006 119.172 276.906C129.432 283.962 142.616 288.976 155.104 288.976C167.87 288.976 180.637 284.055 191.082 276.859C196.235 273.192 203.105 273.192 208.258 276.859Z" fill="white"/>
</svg>
