<svg width="15" height="9" viewBox="0 0 15 9" fill="none" xmlns="http://www.w3.org/2000/svg">
<path d="M1.58333 0C0.710026 0 0 0.672656 0 1.5V7.5C0 8.32734 0.710026 9 1.58333 9H12.6667C13.54 9 14.25 8.32734 14.25 7.5V1.5C14.25 0.672656 13.54 0 12.6667 0H1.58333ZM3.16667 7.5H1.58333V6C2.45664 6 3.16667 6.67266 3.16667 7.5ZM1.58333 3V1.5H3.16667C3.16667 2.32734 2.45664 3 1.58333 3ZM11.0833 7.5C11.0833 6.67266 11.7934 6 12.6667 6V7.5H11.0833ZM12.6667 3C11.7934 3 11.0833 2.32734 11.0833 1.5H12.6667V3ZM4.35417 4.5C4.35417 4.15528 4.42584 3.81394 4.56508 3.49546C4.70433 3.17698 4.90843 2.8876 5.16572 2.64384C5.42302 2.40009 5.72847 2.20673 6.06465 2.07482C6.40082 1.9429 6.76113 1.875 7.125 1.875C7.48887 1.875 7.84918 1.9429 8.18535 2.07482C8.52152 2.20673 8.82698 2.40009 9.08427 2.64384C9.34157 2.8876 9.54567 3.17698 9.68492 3.49546C9.82416 3.81394 9.89583 4.15528 9.89583 4.5C9.89583 4.84472 9.82416 5.18606 9.68492 5.50454C9.54567 5.82302 9.34157 6.1124 9.08427 6.35616C8.82698 6.59991 8.52152 6.79327 8.18535 6.92518C7.84918 7.0571 7.48887 7.125 7.125 7.125C6.76113 7.125 6.40082 7.0571 6.06465 6.92518C5.72847 6.79327 5.42302 6.59991 5.16572 6.35616C4.90843 6.1124 4.70433 5.82302 4.56508 5.50454C4.42584 5.18606 4.35417 4.84472 4.35417 4.5ZM6.23437 3.375C6.23437 3.60234 6.40508 3.78984 6.63021 3.83438V4.96875H6.53125C6.25911 4.96875 6.03646 5.17969 6.03646 5.4375C6.03646 5.69531 6.25911 5.90625 6.53125 5.90625H7.125H7.71875C7.99089 5.90625 8.21354 5.69531 8.21354 5.4375C8.21354 5.17969 7.99089 4.96875 7.71875 4.96875H7.61979V3.375C7.61979 3.11719 7.39714 2.90625 7.125 2.90625H6.72917C6.45703 2.90625 6.23437 3.11719 6.23437 3.375Z" />
</svg>
